<?xml version="1.0" encoding="UTF-8"?>
<svg width="313px" height="57px" viewBox="0 0 313 57" version="1.1" xmlns="http://www.w3.org/2000/svg" xmlns:xlink="http://www.w3.org/1999/xlink">
    <!-- Generator: Sketch 47.1 (45422) - http://www.bohemiancoding.com/sketch -->
    <title>Artboard</title>
    <desc>Created with Sketch.</desc>
    <defs></defs>
    <g id="Page-1" stroke="none" stroke-width="1" fill="none" fill-rule="evenodd">
        <g id="Artboard" fill-rule="nonzero" fill="#B0B0B0">
            <g id="logo" transform="translate(0.000000, 8.500000)">
                <path d="M2,0.733944954 L14.4248412,0.733944954 C26.8736768,0.733944954 31.7007763,8.52505293 31.7007763,19.8729711 C31.7007763,31.1926606 26.9019054,39.266055 14.4248412,39.266055 L2,39.266055 L2,39.266055 C0.8954305,39.266055 1.3527075e-16,38.3706245 0,37.266055 L0,2.73394495 L0,2.73394495 C-1.3527075e-16,1.62937545 0.8954305,0.733944954 2,0.733944954 Z M8.1863091,7.33944954 L8.1863091,32.6605505 L13.2392378,32.6605505 C19.5342272,32.6605505 23.3168666,29.4707128 23.3168666,20.042343 C23.3168666,12.8440367 21.0303458,7.33944954 13.2392378,7.33944954 L8.1863091,7.33944954 Z M61.8652082,32.6605505 L46.8151023,32.6605505 L46.8151023,32.6605505 C46.2628176,32.6605505 45.8151023,32.2128352 45.8151023,31.6605505 L45.8151023,23.8652082 L45.8151023,23.8652082 C45.8151023,23.3129234 46.2628176,22.8652082 46.8151023,22.8652082 L60.8489767,22.8652082 L60.8489767,22.8652082 C61.4012615,22.8652082 61.8489767,22.4174929 61.8489767,21.8652082 L61.8489767,17.711362 L61.8489767,17.711362 C61.8489767,17.1590773 61.4012615,16.711362 60.8489767,16.711362 L46.8151023,16.711362 L46.8151023,16.711362 C46.2628176,16.711362 45.8151023,16.2636468 45.8151023,15.711362 L45.8151023,8.33944954 L45.8151023,8.33944954 C45.8151023,7.78716479 46.2628176,7.33944954 46.8151023,7.33944954 L61.8652082,7.33944954 L61.8652082,7.33944954 C62.4174929,7.33944954 62.8652082,6.89173429 62.8652082,6.33944954 L62.8652082,1.73394495 L62.8652082,1.73394495 C62.8652082,1.1816602 62.4174929,0.733944954 61.8652082,0.733944954 L38.7134792,0.733944954 L38.7134792,0.733944954 C38.1611944,0.733944954 37.7134792,1.1816602 37.7134792,1.73394495 L37.7134792,38.266055 L37.7134792,38.266055 C37.7134792,38.8183398 38.1611944,39.266055 38.7134792,39.266055 L61.8652082,39.266055 L61.8652082,39.266055 C62.4174929,39.266055 62.8652082,38.8183398 62.8652082,38.266055 L62.8652082,33.6605505 L62.8652082,33.6605505 C62.8652082,33.1082657 62.4174929,32.6605505 61.8652082,32.6605505 Z M85.3916725,0.733944954 C94.6506704,0.733944954 99.1107975,6.09738885 99.1107975,13.0416373 C99.1107975,19.393084 94.9611856,22.7522936 92.1383204,23.8814397 L99.1443926,37.8168753 L99.1443926,37.8168753 C99.3924677,38.3103094 99.193565,38.9114214 98.7001309,39.1594965 C98.5607646,39.2295632 98.4069394,39.266055 98.2509512,39.266055 L91.4170768,39.266055 L91.4170768,39.266055 C91.0301652,39.266055 90.6779715,39.0428587 90.5127895,38.6929795 L84.3637101,25.6683472 L84.3637101,25.6683472 C84.1985281,25.318468 83.8463344,25.0952717 83.4594228,25.0952717 L78.7417078,25.0952717 L78.7417078,25.0952717 C78.1894231,25.0952717 77.7417078,25.542987 77.7417078,26.0952717 L77.7417078,38.266055 L77.7417078,38.266055 C77.7417078,38.8183398 77.2939926,39.266055 76.7417078,39.266055 L70.696542,39.266055 L70.696542,39.266055 C70.1442572,39.266055 69.696542,38.8183398 69.696542,38.266055 L69.696542,1.73394495 L69.696542,1.73394495 C69.696542,1.1816602 70.1442572,0.733944954 70.696542,0.733944954 L85.3916725,0.733944954 Z M77.7417078,19.0825688 L84.0931546,19.0825688 C88.1580805,19.0825688 90.6986591,17.0501059 90.6986591,13.1827805 C90.6986591,9.08962597 87.9322512,7.02893437 84.2060692,7.02893437 L77.7417078,7.02893437 L77.7417078,19.0825688 Z M121.242061,0.733944954 C130.501059,0.733944954 134.961186,6.09738885 134.961186,13.0416373 C134.961186,19.393084 130.811574,22.7522936 127.988709,23.8814397 L134.994781,37.8168753 L134.994781,37.8168753 C135.242856,38.3103094 135.043953,38.9114214 134.550519,39.1594965 C134.411153,39.2295632 134.257328,39.266055 134.101339,39.266055 L127.267465,39.266055 L127.267465,39.266055 C126.880553,39.266055 126.52836,39.0428587 126.363178,38.6929795 L120.214098,25.6683472 L120.214098,25.6683472 C120.048916,25.318468 119.696723,25.0952717 119.309811,25.0952717 L114.592096,25.0952717 L114.592096,25.0952717 C114.039811,25.0952717 113.592096,25.542987 113.592096,26.0952717 L113.592096,38.266055 L113.592096,38.266055 C113.592096,38.8183398 113.144381,39.266055 112.592096,39.266055 L106.54693,39.266055 L106.54693,39.266055 C105.994645,39.266055 105.54693,38.8183398 105.54693,38.266055 L105.54693,1.73394495 L105.54693,1.73394495 C105.54693,1.1816602 105.994645,0.733944954 106.54693,0.733944954 L121.242061,0.733944954 Z M113.592096,19.0825688 L119.943543,19.0825688 C124.008469,19.0825688 126.549047,17.0501059 126.549047,13.1827805 C126.549047,9.08962597 123.782639,7.02893437 120.056457,7.02893437 L113.592096,7.02893437 L113.592096,19.0825688 Z M149.583627,38.266055 L149.583627,1.73394495 L149.583627,1.73394495 C149.583627,1.1816602 149.135912,0.733944954 148.583627,0.733944954 L142.397318,0.733944954 L142.397318,0.733944954 C141.845034,0.733944954 141.397318,1.1816602 141.397318,1.73394495 L141.397318,38.266055 L141.397318,38.266055 C141.397318,38.8183398 141.845034,39.266055 142.397318,39.266055 L148.583627,39.266055 L148.583627,39.266055 C149.135912,39.266055 149.583627,38.8183398 149.583627,38.266055 Z M164.290755,17.8969654 C164.290755,10.5010586 167.480593,6.85956246 172.36415,6.85956246 C176.982311,6.85956246 179.531874,10.1795355 179.769931,13.9045862 C179.769931,13.9045862 179.769931,13.9045862 179.769931,13.9045862 L179.769931,13.9045862 C179.790654,14.2288684 180.059713,14.4812812 180.384657,14.4812812 L186.817219,14.4812985 L186.817219,14.4812985 C187.269337,14.4812985 187.63585,14.114785 187.63585,13.6626676 L187.63585,13.6626676 C187.63585,6.21030346 181.848977,0 172.307692,0 C162.08892,0 155.991531,6.60550459 155.991531,17.8687368 L155.991531,22.2159492 C155.991531,33.4791814 162.032463,40 172.279464,40 C182.074806,40 187.63585,33.7050106 187.63585,26.7043049 L187.63585,26.7043049 L187.63585,26.7043049 C187.63585,26.2365972 187.256698,25.8574453 186.788991,25.8574453 L180.470352,25.8574453 L180.470352,25.8574616 C180.099399,25.8574616 179.791506,26.1441242 179.765049,26.514133 C179.765049,26.514133 179.765049,26.514133 179.765049,26.514133 C179.501887,30.1944841 177.006179,33.1404375 172.420607,33.1404375 C167.452364,33.1404375 164.290755,29.6683133 164.290755,22.2441778 L164.290755,17.8969654 Z M223.320747,0.733944954 L217.010265,0.733944954 L217.010265,0.733944954 C216.713543,0.733944954 216.432143,0.865717328 216.242149,1.09363485 L202.399435,17.6993649 L202.032463,17.6993649 L202.032463,1.73394495 L202.032463,1.73394495 C202.032463,1.1816602 201.584748,0.733944954 201.032463,0.733944954 L194.846154,0.733944954 L194.846154,0.733944954 C194.293869,0.733944954 193.846154,1.1816602 193.846154,1.73394495 L193.846154,38.266055 L193.846154,38.266055 C193.846154,38.8183398 194.293869,39.266055 194.846154,39.266055 L201.032463,39.266055 L201.032463,39.266055 C201.584748,39.266055 202.032463,38.8183398 202.032463,38.266055 L202.032463,27.1277347 L204.933068,23.7942029 L204.933068,23.7942029 C205.2956,23.3775623 205.927244,23.3336981 206.343884,23.6962296 C206.417246,23.7600638 206.480904,23.8342576 206.532849,23.9164678 L215.937132,38.8002114 L215.937132,38.8002114 C216.120371,39.0902163 216.439473,39.266055 216.782518,39.266055 L224.158689,39.266055 L224.158689,39.266055 C224.710974,39.266055 225.158689,38.8183398 225.158689,38.266055 C225.158689,38.0730211 225.102819,37.8841128 224.997824,37.7221314 L211.799577,17.360621 L224.094002,2.36804024 L224.094002,2.36804024 C224.444203,1.94098334 224.381899,1.3108912 223.954842,0.960690038 C223.776048,0.814072665 223.55197,0.733944954 223.320747,0.733944954 Z M273.027523,38.266055 L273.027523,1.73394495 L273.027523,1.73394495 C273.027523,1.1816602 272.579808,0.733944954 272.027523,0.733944954 L265.841214,0.733944954 L265.841214,0.733944954 C265.288929,0.733944954 264.841214,1.1816602 264.841214,1.73394495 L264.841214,16.2597036 L249.315455,16.2597036 L249.315455,1.73394495 L249.315455,1.73394495 C249.315455,1.1816602 248.86774,0.733944954 248.315455,0.733944954 L242.129146,0.733944954 L242.129146,0.733944954 C241.576861,0.733944954 241.129146,1.1816602 241.129146,1.73394495 L241.129146,38.266055 L241.129146,38.266055 C241.129146,38.8183398 241.576861,39.266055 242.129146,39.266055 L248.315455,39.266055 L248.315455,39.266055 C248.86774,39.266055 249.315455,38.8183398 249.315455,38.266055 L249.315455,22.9781228 L264.841214,22.9781228 L264.841214,38.266055 L264.841214,38.266055 C264.841214,38.8183398 265.288929,39.266055 265.841214,39.266055 L272.027523,39.266055 L272.027523,39.266055 C272.579808,39.266055 273.027523,38.8183398 273.027523,38.266055 Z M287.762879,17.6429076 L287.762879,22.554693 C287.762879,29.7529993 291.263232,33.2533522 296.175018,33.2533522 C301.115032,33.2533522 304.587156,29.7529993 304.587156,22.554693 L304.587156,17.6429076 C304.587156,10.4728299 301.115032,6.74664785 296.175018,6.74664785 C291.263232,6.74664785 287.762879,10.4728299 287.762879,17.6429076 Z M279.435427,22.5264644 L279.435427,17.7275935 C279.435427,6.7748765 285.730416,0 296.203246,0 C306.704305,0 312.914608,6.8313338 312.914608,17.7275935 L312.914608,22.5264644 C312.914608,33.3944954 306.647848,40 296.146789,40 C285.673959,40 279.435427,33.3944954 279.435427,22.5264644 Z" id="DERRICK-HO"></path>
            </g>
        </g>
    </g>
</svg>