<?xml version="1.0" encoding="UTF-8"?>
<svg width="313px" height="41px" viewBox="0 0 313 41" version="1.1" xmlns="http://www.w3.org/2000/svg" xmlns:xlink="http://www.w3.org/1999/xlink">
    <!-- Generator: Sketch 49 (51002) - http://www.bohemiancoding.com/sketch -->
    <title>logo</title>
    <desc>Created with Sketch.</desc>
    <defs></defs>
    <g id="Page-1" stroke="none" stroke-width="1" fill="none" fill-rule="evenodd">
        <g id="logo" fill="#222222" fill-rule="nonzero">
            <path d="M2,1.23394495 L14.4248412,1.23394495 C26.8736768,1.23394495 31.7007763,9.02505293 31.7007763,20.3729711 C31.7007763,31.6926606 26.9019054,39.766055 14.4248412,39.766055 L2,39.766055 C0.8954305,39.766055 1.3527075e-16,38.8706245 0,37.766055 L0,3.23394495 C-1.3527075e-16,2.12937545 0.8954305,1.23394495 2,1.23394495 Z M8.1863091,7.83944954 L8.1863091,33.1605505 L13.2392378,33.1605505 C19.5342272,33.1605505 23.3168666,29.9707128 23.3168666,20.542343 C23.3168666,13.3440367 21.0303458,7.83944954 13.2392378,7.83944954 L8.1863091,7.83944954 Z M61.8652082,33.1605505 L46.8151023,33.1605505 C46.2628176,33.1605505 45.8151023,32.7128352 45.8151023,32.1605505 L45.8151023,24.3652082 C45.8151023,23.8129234 46.2628176,23.3652082 46.8151023,23.3652082 L60.8489767,23.3652082 C61.4012615,23.3652082 61.8489767,22.9174929 61.8489767,22.3652082 L61.8489767,18.211362 C61.8489767,17.6590773 61.4012615,17.211362 60.8489767,17.211362 L46.8151023,17.211362 C46.2628176,17.211362 45.8151023,16.7636468 45.8151023,16.211362 L45.8151023,8.83944954 C45.8151023,8.28716479 46.2628176,7.83944954 46.8151023,7.83944954 L61.8652082,7.83944954 C62.4174929,7.83944954 62.8652082,7.39173429 62.8652082,6.83944954 L62.8652082,2.23394495 C62.8652082,1.6816602 62.4174929,1.23394495 61.8652082,1.23394495 L38.7134792,1.23394495 C38.1611944,1.23394495 37.7134792,1.6816602 37.7134792,2.23394495 L37.7134792,38.766055 C37.7134792,39.3183398 38.1611944,39.766055 38.7134792,39.766055 L61.8652082,39.766055 C62.4174929,39.766055 62.8652082,39.3183398 62.8652082,38.766055 L62.8652082,34.1605505 C62.8652082,33.6082657 62.4174929,33.1605505 61.8652082,33.1605505 Z M85.3916725,1.23394495 C94.6506704,1.23394495 99.1107975,6.59738885 99.1107975,13.5416373 C99.1107975,19.893084 94.9611856,23.2522936 92.1383204,24.3814397 L99.1443926,38.3168753 C99.3924677,38.8103094 99.193565,39.4114214 98.7001309,39.6594965 C98.5607646,39.7295632 98.4069394,39.766055 98.2509512,39.766055 L91.4170768,39.766055 C91.0301652,39.766055 90.6779715,39.5428587 90.5127895,39.1929795 L84.3637101,26.1683472 C84.1985281,25.818468 83.8463344,25.5952717 83.4594228,25.5952717 L78.7417078,25.5952717 C78.1894231,25.5952717 77.7417078,26.042987 77.7417078,26.5952717 L77.7417078,38.766055 C77.7417078,39.3183398 77.2939926,39.766055 76.7417078,39.766055 L70.696542,39.766055 C70.1442572,39.766055 69.696542,39.3183398 69.696542,38.766055 L69.696542,2.23394495 C69.696542,1.6816602 70.1442572,1.23394495 70.696542,1.23394495 L85.3916725,1.23394495 Z M77.7417078,19.5825688 L84.0931546,19.5825688 C88.1580805,19.5825688 90.6986591,17.5501059 90.6986591,13.6827805 C90.6986591,9.58962597 87.9322512,7.52893437 84.2060692,7.52893437 L77.7417078,7.52893437 L77.7417078,19.5825688 Z M121.242061,1.23394495 C130.501059,1.23394495 134.961186,6.59738885 134.961186,13.5416373 C134.961186,19.893084 130.811574,23.2522936 127.988709,24.3814397 L134.994781,38.3168753 C135.242856,38.8103094 135.043953,39.4114214 134.550519,39.6594965 C134.411153,39.7295632 134.257328,39.766055 134.101339,39.766055 L127.267465,39.766055 C126.880553,39.766055 126.52836,39.5428587 126.363178,39.1929795 L120.214098,26.1683472 C120.048916,25.818468 119.696723,25.5952717 119.309811,25.5952717 L114.592096,25.5952717 C114.039811,25.5952717 113.592096,26.042987 113.592096,26.5952717 L113.592096,38.766055 C113.592096,39.3183398 113.144381,39.766055 112.592096,39.766055 L106.54693,39.766055 C105.994645,39.766055 105.54693,39.3183398 105.54693,38.766055 L105.54693,2.23394495 C105.54693,1.6816602 105.994645,1.23394495 106.54693,1.23394495 L121.242061,1.23394495 Z M113.592096,19.5825688 L119.943543,19.5825688 C124.008469,19.5825688 126.549047,17.5501059 126.549047,13.6827805 C126.549047,9.58962597 123.782639,7.52893437 120.056457,7.52893437 L113.592096,7.52893437 L113.592096,19.5825688 Z M149.583627,38.766055 L149.583627,2.23394495 C149.583627,1.6816602 149.135912,1.23394495 148.583627,1.23394495 L142.397318,1.23394495 C141.845034,1.23394495 141.397318,1.6816602 141.397318,2.23394495 L141.397318,38.766055 C141.397318,39.3183398 141.845034,39.766055 142.397318,39.766055 L148.583627,39.766055 C149.135912,39.766055 149.583627,39.3183398 149.583627,38.766055 Z M164.290755,18.3969654 C164.290755,11.0010586 167.480593,7.35956246 172.36415,7.35956246 C176.982311,7.35956246 179.531874,10.6795355 179.769931,14.4045862 C179.769931,14.4045862 179.769931,14.4045862 179.769931,14.4045862 C179.790654,14.7288684 180.059713,14.9812812 180.384657,14.9812812 L186.817219,14.9812985 C187.269337,14.9812985 187.63585,14.614785 187.63585,14.1626676 C187.63585,6.71030346 181.848977,0.5 172.307692,0.5 C162.08892,0.5 155.991531,7.10550459 155.991531,18.3687368 L155.991531,22.7159492 C155.991531,33.9791814 162.032463,40.5 172.279464,40.5 C182.074806,40.5 187.63585,34.2050106 187.63585,27.2043049 C187.63585,26.7365972 187.256698,26.3574453 186.788991,26.3574453 L180.470352,26.3574453 L180.470352,26.3574616 C180.099399,26.3574616 179.791506,26.6441242 179.765049,27.014133 C179.765049,27.014133 179.765049,27.014133 179.765049,27.014133 C179.501887,30.6944841 177.006179,33.6404375 172.420607,33.6404375 C167.452364,33.6404375 164.290755,30.1683133 164.290755,22.7441778 L164.290755,18.3969654 Z M223.320747,1.23394495 L217.010265,1.23394495 C216.713543,1.23394495 216.432143,1.36571733 216.242149,1.59363485 L202.399435,18.1993649 L202.032463,18.1993649 L202.032463,2.23394495 C202.032463,1.6816602 201.584748,1.23394495 201.032463,1.23394495 L194.846154,1.23394495 C194.293869,1.23394495 193.846154,1.6816602 193.846154,2.23394495 L193.846154,38.766055 C193.846154,39.3183398 194.293869,39.766055 194.846154,39.766055 L201.032463,39.766055 C201.584748,39.766055 202.032463,39.3183398 202.032463,38.766055 L202.032463,27.6277347 L204.933068,24.2942029 C205.2956,23.8775623 205.927244,23.8336981 206.343884,24.1962296 C206.417246,24.2600638 206.480904,24.3342576 206.532849,24.4164678 L215.937132,39.3002114 C216.120371,39.5902163 216.439473,39.766055 216.782518,39.766055 L224.158689,39.766055 C224.710974,39.766055 225.158689,39.3183398 225.158689,38.766055 C225.158689,38.5730211 225.102819,38.3841128 224.997824,38.2221314 L211.799577,17.860621 L224.094002,2.86804024 C224.444203,2.44098334 224.381899,1.8108912 223.954842,1.46069004 C223.776048,1.31407267 223.55197,1.23394495 223.320747,1.23394495 Z M273.027523,38.766055 L273.027523,2.23394495 C273.027523,1.6816602 272.579808,1.23394495 272.027523,1.23394495 L265.841214,1.23394495 C265.288929,1.23394495 264.841214,1.6816602 264.841214,2.23394495 L264.841214,16.7597036 L249.315455,16.7597036 L249.315455,2.23394495 C249.315455,1.6816602 248.86774,1.23394495 248.315455,1.23394495 L242.129146,1.23394495 C241.576861,1.23394495 241.129146,1.6816602 241.129146,2.23394495 L241.129146,38.766055 C241.129146,39.3183398 241.576861,39.766055 242.129146,39.766055 L248.315455,39.766055 C248.86774,39.766055 249.315455,39.3183398 249.315455,38.766055 L249.315455,23.4781228 L264.841214,23.4781228 L264.841214,38.766055 C264.841214,39.3183398 265.288929,39.766055 265.841214,39.766055 L272.027523,39.766055 C272.579808,39.766055 273.027523,39.3183398 273.027523,38.766055 Z M287.762879,18.1429076 L287.762879,23.054693 C287.762879,30.2529993 291.263232,33.7533522 296.175018,33.7533522 C301.115032,33.7533522 304.587156,30.2529993 304.587156,23.054693 L304.587156,18.1429076 C304.587156,10.9728299 301.115032,7.24664785 296.175018,7.24664785 C291.263232,7.24664785 287.762879,10.9728299 287.762879,18.1429076 Z M279.435427,23.0264644 L279.435427,18.2275935 C279.435427,7.2748765 285.730416,0.5 296.203246,0.5 C306.704305,0.5 312.914608,7.3313338 312.914608,18.2275935 L312.914608,23.0264644 C312.914608,33.8944954 306.647848,40.5 296.146789,40.5 C285.673959,40.5 279.435427,33.8944954 279.435427,23.0264644 Z" id="DERRICK-HO"></path>
        </g>
    </g>
</svg>